<svg xml:space="preserve" style="clip-rule:evenodd;fill-rule:evenodd;stroke-linejoin:round;stroke-miterlimit:2" width="256" height="256" xmlns="http://www.w3.org/2000/svg"><circle style="clip-rule:evenodd;display:inline;fill:#fdffff;fill-opacity:1;fill-rule:evenodd;stroke:none;stroke-width:0;stroke-linejoin:round;stroke-miterlimit:2;stroke-dasharray:none" cx="128" cy="128" r="128"/><path style="font-size:144px;line-height:1.25;font-family:STXinwei;-inkscape-font-specification:'STXinwei, Normal';white-space:pre;fill:#27407a;stroke-width:16.2;paint-order:stroke fill markers;fill-opacity:1" d="M108 12c-1.641 0-2.974.713-4 2.139-.82 1.222-1.64 4.278-2.46 9.168-.616 4.89-.925 8.76-.925 11.613 0 2.648.309 4.685.924 6.111.82 1.223 2.255 2.14 4.307 2.75 2.256.611 4.103 1.427 5.539 2.446 3.692 2.648 8 3.972 12.924 3.972 8.82 0 13.23-2.648 13.23-7.945 0-2.649-1.128-5.602-3.385-8.861-2.256-3.26-5.538-6.215-9.845-8.864-4.308-2.648-7.488-5.397-9.54-8.25C112.924 13.427 110.668 12 108 12Zm56.924 31.201c-9.846 0-21.745 2.649-35.694 7.945-13.743 5.297-40.535 12-45.664 12-1.846 0-3.794.51-5.845 1.528-1.846.815-3.42 1.78-3.42 3.207 0 .312.215.863.56 1.549-.04-.035-.406-.34-.483-.391-.853-.57-3.096 1.665-7.608 4.72-4.308 3.057-8.002 6.52-11.079 10.391-3.077 3.871-4.615 7.131-4.615 9.78 0 2.648 2.36 4.584 7.078 5.806 4.923 1.019 10.257 1.528 16 1.528 5.744 0 8.616-1.732 8.616-5.196 0-1.833 1.043-5.587.544-7.683.325-.787-1.94-8.232-1.855-8.351 2.337 2.561 5.25 2.013 7.633 2.013 2.666 0 8.22-1.216 10.681-2.235 8.22-2.033 7.02-2.288 24.461-4.968 7.385-1.019 21.67-6.359 25.801-8.127 3.542-1.41 12.659-3.42 17.67-2.961 4.29.393 9.895.628 12.772 2.566 2.127 1.434 3.976 1.976 4.625 3.934.704 2.127.633 4.61-.538 6.006-3.076 3.26-5.487 4.832-9.18 6.666-3.692 1.63-5.538 2.853-5.538 3.668 0 .61.923 1.323 2.77 2.138 2.05.815 5.026 1.223 8.923 1.223 4.103 0 8.204-.509 12.307-1.527 4.307-1.223 8.922-2.038 13.845-2.446 3.077-.407 5.539-1.324 7.385-2.75 1.846-1.63 2.77-3.565 2.77-5.806s-1.64-5.196-4.922-8.864c-3.282-3.87-5.548-7.106-8.42-8.736-1.37-1.671-6.263-5.15-8.195-6.543-2.95-2.126-6.464-5.196-12.618-7.03-6.153-2.036-12.408-3.054-18.767-3.054zm-38.154 52.31c-2.257 0-4.205.308-5.846.919-1.641.61-3.386 3.36-5.233 8.25-1.846 4.89-3.18 9.27-4 13.14-.82 3.667-2.358 7.947-4.615 12.836-2.256 4.89-4.614 7.944-7.076 9.166-2.256 1.223-11.281 3.465-27.076 6.725-15.795 3.056-36.923 6.518-63.385 10.389C3.18 157.954 0 159.482 0 161.52c0 2.037 1.025 4.685 3.076 7.945 2.051 3.26 4.412 4.89 7.078 4.89 2.872 0 6.154-.712 9.846-2.138 3.897-1.63 14.668-4.177 32.309-7.64 17.64-3.464 27.794-5.196 30.46-5.196 1.436 0 2.666.509 3.692 1.527 1.23 1.019 1.848 2.038 1.848 3.057 0 .815-1.129 2.954-3.385 6.418a65.246 65.246 0 0 1-7.694 9.168c-2.871 2.648-4.306 4.992-4.306 7.03 0 1.833 1.128 2.75 3.385 2.75 2.256 0 4.51-.409 6.767-1.224 2.462-.814 4.923-1.222 7.385-1.222 2.461 0 6.666.916 12.615 2.75 6.154 1.833 9.233 4.074 9.233 6.722 0 2.445-6.874 6.724-20.618 12.836-13.538 5.909-24.615 8.862-33.23 8.862l-15.691-.612c-3.693 0-5.54.612-5.54 1.834 0 1.223 2.052 3.362 6.155 6.418 4.307 3.26 9.95 6.01 16.924 8.25 6.974 2.241 12.409 3.364 16.306 3.364 4.103 0 6.77-.307 8-.918 1.231-.612 2.256-1.833 3.076-3.666 1.436-3.26 9.436-8.76 24-16.502 14.77-7.742 23.488-11.614 26.155-11.614 1.436 0 2.769.305 4 .916 1.436.612 6.257 3.363 14.463 8.252 8.41 4.686 15.486 9.27 21.23 13.752 5.744 4.482 11.793 9.88 18.152 16.196 1.641 1.63 3.078 2.445 4.309 2.445 1.23 0 2.36-1.936 3.385-5.807 1.025-3.87 1.539-9.371 1.539-16.502 0-7.13-.412-11.611-1.233-13.445-.615-2.037-2.768-3.361-6.46-3.973-3.693-.815-10.873-3.667-21.54-8.556-10.666-5.094-17.126-7.946-19.382-8.557-2.052-.815-3.079-1.834-3.079-3.057 0-1.222 1.232-3.87 3.694-7.945 2.666-4.074 5.64-9.066 8.922-14.974 3.282-5.909 5.538-9.27 6.77-10.084 1.23-1.02 3.795-1.528 7.693-1.528 4.102 0 12.717 1.018 25.845 3.055 13.334 2.037 23.077 4.074 29.23 6.111 6.155 1.834 10.565 2.752 13.231 2.752 2.872 0 4.82-.611 5.846-1.834 1.026-1.426 1.539-4.482 1.539-9.168 0-3.87-.615-7.334-1.846-10.39-1.025-3.056-2.359-5.705-4-7.946-1.64-2.24-3.179-3.565-4.615-3.972-1.436-.612-6.463-1.02-15.078-1.223-8.615-.204-22.665-.305-42.152-.305-2.872 0-4.514-1.02-4.924-3.056-.205-2.038-1.949-4.585-5.23-7.641-3.078-3.056-6.36-4.582-9.846-4.582-3.282 0-5.438 1.833-6.463 5.5-.41 2.241-1.435 4.685-3.076 7.334-1.436 2.648-4.616 4.176-9.54 4.584-4.717.407-10.256 1.324-16.615 2.75-3.282.611-4.924-.713-4.924-3.973 0-1.018 1.54-4.89 4.618-11.613 3.282-6.723 5.435-10.696 6.46-11.918 1.231-1.426 1.846-2.954 1.846-4.584 0-1.63-1.743-3.055-5.23-4.277-3.487-1.223-6.36-1.834-8.615-1.834zm12.921 56.84c2.462 0 3.694.919 3.694 2.753 0 1.222-1.949 5.398-5.846 12.529-3.897 7.13-7.386 10.695-10.463 10.695-.82 0-2.665-.509-5.537-1.527-2.872-1.019-6.462-1.733-10.77-2.14-4.102-.408-6.154-2.037-6.154-4.89 0-1.833 1.539-4.481 4.615-7.945 3.077-3.667 5.23-5.807 6.461-6.418 1.436-.815 5.643-1.527 12.618-2.138 7.18-.612 10.972-.918 11.382-.918z"/></svg>