<?xml version="1.0" encoding="UTF-8" standalone="no"?>
<!DOCTYPE svg PUBLIC "-//W3C//DTD SVG 1.1//EN" "http://www.w3.org/Graphics/SVG/1.1/DTD/svg11.dtd">
<svg width="100%" height="100%" viewBox="0 0 192 192" version="1.1" xmlns="http://www.w3.org/2000/svg" xmlns:xlink="http://www.w3.org/1999/xlink" xml:space="preserve" xmlns:serif="http://www.serif.com/" style="fill-rule:evenodd;clip-rule:evenodd;stroke-linejoin:round;stroke-miterlimit:2;">
    <g transform="matrix(1,0,0,1,-559.236,-651.191)">
        <g id="yasutake" transform="matrix(0.856047,0,0,1.00524,822.657,439.389)">
            <rect x="-307.718" y="210.698" width="224.287" height="191" style="fill:none;"/>
            <clipPath id="_clip1">
                <rect x="-307.718" y="210.698" width="224.287" height="191"/>
            </clipPath>
            <g clip-path="url(#_clip1)">
                <g transform="matrix(1.16816,0,0,0.994792,-307.133,210.896)">
                    <circle cx="96" cy="96" r="96" style="fill:white;"/>
                </g>
                <g transform="matrix(1.06707,0,0,0.908704,-298.013,218.963)">
                    <path d="M96,-8C38.601,-8 -8,38.601 -8,96C-8,153.399 38.601,200 96,200C153.399,200 200,153.399 200,96C200,38.601 153.399,-8 96,-8ZM96,8C144.569,8 184,47.431 184,96C184,144.569 144.569,184 96,184C47.431,184 8,144.569 8,96C8,47.431 47.431,8 96,8Z" style="fill:rgb(122,39,106);"/>
                </g>
                <g transform="matrix(0.728703,0,0,0.620555,-288.042,241.77)">
                    <g transform="matrix(233.301,0,0,233.301,9.27065,185.413)">
                        <path d="M0.625,-0.132C0.692,-0.105 0.756,-0.074 0.82,-0.041C0.843,-0.028 0.855,-0.009 0.855,0.016C0.855,0.028 0.851,0.04 0.844,0.05C0.831,0.069 0.814,0.078 0.794,0.078C0.783,0.078 0.771,0.075 0.758,0.067C0.756,0.066 0.745,0.06 0.725,0.047C0.677,0.017 0.614,-0.015 0.536,-0.05C0.483,-0.014 0.422,0.015 0.353,0.036C0.307,0.05 0.257,0.061 0.203,0.069C0.196,0.07 0.19,0.071 0.186,0.071C0.165,0.071 0.151,0.062 0.144,0.045C0.141,0.039 0.14,0.033 0.14,0.028C0.14,0.007 0.15,-0.007 0.172,-0.015C0.175,-0.016 0.188,-0.019 0.209,-0.023C0.287,-0.038 0.357,-0.064 0.419,-0.1C0.386,-0.113 0.349,-0.127 0.311,-0.142C0.286,-0.151 0.269,-0.159 0.259,-0.165C0.24,-0.178 0.23,-0.194 0.23,-0.212C0.23,-0.228 0.24,-0.253 0.258,-0.287C0.264,-0.295 0.269,-0.306 0.275,-0.317L0.097,-0.31C0.086,-0.309 0.076,-0.312 0.068,-0.317C0.055,-0.326 0.048,-0.34 0.048,-0.361C0.048,-0.395 0.063,-0.413 0.093,-0.414L0.324,-0.424L0.328,-0.432C0.341,-0.466 0.353,-0.499 0.363,-0.529C0.372,-0.557 0.39,-0.572 0.417,-0.572C0.427,-0.572 0.438,-0.569 0.449,-0.564C0.47,-0.555 0.48,-0.539 0.48,-0.518C0.48,-0.501 0.472,-0.472 0.455,-0.431L0.633,-0.438C0.633,-0.441 0.634,-0.444 0.635,-0.449C0.641,-0.478 0.658,-0.492 0.687,-0.492C0.705,-0.492 0.721,-0.487 0.734,-0.477C0.745,-0.469 0.752,-0.458 0.754,-0.444L0.904,-0.451L0.907,-0.451C0.922,-0.452 0.934,-0.447 0.943,-0.436C0.95,-0.427 0.954,-0.415 0.954,-0.401C0.954,-0.364 0.939,-0.345 0.909,-0.344L0.732,-0.336C0.707,-0.256 0.671,-0.188 0.625,-0.132ZM0.515,-0.176C0.547,-0.213 0.575,-0.265 0.601,-0.331L0.407,-0.323C0.397,-0.303 0.386,-0.283 0.375,-0.263C0.369,-0.253 0.366,-0.245 0.366,-0.239C0.366,-0.233 0.37,-0.227 0.379,-0.223C0.382,-0.222 0.396,-0.217 0.42,-0.209C0.436,-0.204 0.467,-0.193 0.515,-0.176ZM0.557,-0.699L0.826,-0.717C0.828,-0.717 0.833,-0.717 0.84,-0.717C0.888,-0.717 0.913,-0.701 0.913,-0.668C0.913,-0.646 0.898,-0.616 0.87,-0.578C0.826,-0.519 0.793,-0.49 0.77,-0.49C0.762,-0.49 0.754,-0.493 0.747,-0.498C0.738,-0.504 0.734,-0.512 0.734,-0.523C0.734,-0.532 0.737,-0.542 0.744,-0.555C0.758,-0.581 0.765,-0.597 0.765,-0.605C0.765,-0.611 0.76,-0.614 0.751,-0.613C0.75,-0.613 0.749,-0.613 0.747,-0.613L0.235,-0.58C0.232,-0.492 0.208,-0.447 0.162,-0.447C0.153,-0.447 0.144,-0.449 0.135,-0.452C0.109,-0.46 0.096,-0.478 0.096,-0.506C0.096,-0.516 0.1,-0.53 0.109,-0.548C0.125,-0.58 0.136,-0.62 0.145,-0.67C0.149,-0.699 0.164,-0.713 0.188,-0.713C0.211,-0.713 0.226,-0.701 0.231,-0.678L0.43,-0.691L0.43,-0.787C0.43,-0.808 0.439,-0.823 0.457,-0.832C0.468,-0.837 0.48,-0.84 0.494,-0.84C0.511,-0.84 0.525,-0.836 0.537,-0.828C0.55,-0.818 0.557,-0.805 0.557,-0.787L0.557,-0.699Z" style="fill:rgb(122,39,106);fill-rule:nonzero;"/>
                    </g>
                </g>
            </g>
        </g>
    </g>
</svg>
